#!OML:ASF H:\LiuWeirdWalks\Patient Classification 1\Patient 1\Session 1\male.ASF
:FULLY-SPECIFIED
:DEGREES
863
root 1.0471 17.9936 1.68101 7.0473 2.32863 6.88448
lowerback 13.763 -0.797613 -0.227905
upperback 0.463185 -0.796249 3.90291
thorax -7.18546 -0.307963 4.44858
lowerneck -16.4972 0.576586 7.09014
upperneck 13.8465 1.86748 -16.1406
head 7.20108 -0.17685 -6.35286
rclavicle 0 -2.54444e-014
rhumerus -22.7283 -30.4712 -11.7856
rradius 31.8477
rwrist -1.27223
rhand -22.1956 -3.77373
rfingers 7.12502
rthumb 4.21985 -33.7117
lclavicle 0 -2.54444e-014
lhumerus -29.0532 31.4966 25.558
lradius 38.4914
lwrist 11.5867
lhand -20.3539 -1.89729
lfingers 7.12502
lthumb 5.99814 27.9978
rfemur -30.2996 -4.02921 6.88559
rtibia 33.8196
rfoot -4.0952 -16.1681
rtoes -2.92936
lfemur 3.12828 -1.22389 -20.7712
ltibia 25.8128
lfoot -0.922893 15.5582
ltoes -15.3663
864
root 1.00617 18.0091 1.76347 7.02882 2.27297 6.98273
lowerback 13.7573 -0.76558 -0.0558529
upperback 0.435308 -0.712565 4.07698
thorax -7.21919 -0.268951 4.52229
lowerneck -16.5317 0.601125 7.17654
upperneck 13.8859 1.96622 -16.6129
head 7.24154 -0.168507 -6.52551
rclavicle 9.93923e-015 -2.54444e-014
rhumerus -22.6122 -30.5095 -12.3834
rradius 31.7334
rwrist -1.07206
rhand -22.0489 -3.61553
rfingers 7.12502
rthumb 4.36158 -33.5506
lclavicle 9.93923e-015 -2.54444e-014
lhumerus -28.8702 31.4177 25.3115
lradius 38.6552
lwrist 11.6373
lhand -20.4483 -1.93142
lfingers 7.12502
lthumb 5.90699 27.9662
rfemur -30.0266 -4.01981 6.9522
rtibia 33.886
rfoot -4.2552 -16.1763
rtoes -2.64258
lfemur 3.08743 -1.25715 -20.7799
ltibia 26.2161
lfoot -0.220325 15.4183
ltoes -15.0896
865
root 0.96469 18.0242 1.84489 7.00641 2.23303 7.07975
lowerback 13.7538 -0.738221 0.0967572
upperback 0.401938 -0.638434 4.24217
thorax -7.25923 -0.23396 4.59979
lowerneck -16.529 0.628125 7.28155
upperneck 13.8855 2.05931 -17.0787
head 7.26261 -0.158594 -6.6984
rclavicle -1.74931e-014 1.43125e-014
rhumerus -22.5244 -30.5267 -12.9314
rradius 31.6437
rwrist -0.912061
rhand -21.9084 -3.48159
rfingers 7.12502
rthumb 4.49718 -33.4138
lclavicle -1.74931e-014 1.43125e-014
lhumerus -28.6661 31.3514 25.0536
lradius 38.7879
lwrist 11.6335
lhand -20.4992 -1.99187
lfingers 7.12502
lthumb 5.85791 27.9072
rfemur -29.7474 -4.02627 7.02389
rtibia 33.9447
rfoot -4.42091 -16.1864
rtoes -2.40092
lfemur 3.05631 -1.30798 -20.7856
ltibia 26.5931
lfoot 0.500595 15.2926
ltoes -14.7573
866
root 0.922715 18.0392 1.92518 6.98078 2.21313 7.15249
lowerback 13.7487 -0.718931 0.258313
upperback 0.36449 -0.573539 4.40427
thorax -7.30231 -0.203773 4.67087
lowerneck -16.514 0.644626 7.34846
upperneck 13.8867 2.13833 -17.4896
head 7.27955 -0.15218 -6.84724
rclavicle 1.59028e-015 3.18055e-014
rhumerus -22.4696 -30.511 -13.4284
rradius 31.5894
rwrist -0.79051
rhand -21.7917 -3.36405
rfingers 7.12502
rthumb 4.60992 -33.2939
lclavicle 1.59028e-015 3.18055e-014
lhumerus -28.4324 31.2849 24.7976
lradius 38.8907
lwrist 11.6054
lhand -20.5073 -2.07279
lfingers 7.12502
lthumb 5.85006 27.8264
rfemur -29.4586 -4.04449 7.12583
rtibia 33.9913
rfoot -4.60285 -16.203
rtoes -2.22006
lfemur 3.03138 -1.37128 -20.7585
ltibia 26.946
lfoot 1.22576 15.1673
ltoes -14.375
867
root 0.880214 18.0542 2.00437 6.95766 2.20151 7.20743
lowerback 13.7441 -0.699895 0.417065
upperback 0.318393 -0.509087 4.56364
thorax -7.35497 -0.17357 4.74115
lowerneck -16.4921 0.643821 7.35118
upperneck 13.9126 2.1983 -17.8185
head 7.29904 -0.151708 -6.95898
rclavicle 1.27222e-014 -1.90833e-014
rhumerus -22.4412 -30.4883 -13.8534
rradius 31.5445
rwrist -0.673145
rhand -21.6944 -3.25952
rfingers 7.12502
rthumb 4.70388 -33.1873
lclavicle 1.27222e-014 -1.90833e-014
lhumerus -28.1763 31.204 24.5552
lradius 38.9777
lwrist 11.5844
lhand -20.5033 -2.12783
lfingers 7.12502
lthumb 5.85387 27.7713
rfemur -29.1679 -4.06853 7.24944
rtibia 34.0243
rfoot -4.79726 -16.2208
rtoes -2.10183
lfemur 3.01044 -1.43171 -20.7055
ltibia 27.2727
lfoot 1.9431 15.0333
ltoes -13.9577
868
root 0.837676 18.0693 2.08252 6.93516 2.18862 7.23616
lowerback 13.7413 -0.681526 0.581501
upperback 0.277181 -0.444925 4.7182
thorax -7.40354 -0.143959 4.80306
lowerneck -16.485 0.649902 7.3619
upperneck 13.9386 2.26024 -18.1166
head 7.32124 -0.147782 -7.0617
rclavicle 6.36111e-015 9.54166e-015
rhumerus -22.421 -30.4986 -14.2286
rradius 31.5096
rwrist -0.572085
rhand -21.626 -3.1759
rfingers 7.12502
rthumb 4.76991 -33.1022
lclavicle 6.36111e-015 9.54166e-015
lhumerus -27.8862 31.1023 24.3322
lradius 39.0585
lwrist 11.5984
lhand -20.4954 -2.18071
lfingers 7.12502
lthumb 5.86156 27.7182
rfemur -28.875 -4.09033 7.40129
rtibia 34.0424
rfoot -5.00633 -16.2372
rtoes -2.05829
lfemur 2.99499 -1.47968 -20.6203
ltibia 27.5718
lfoot 2.65227 14.8955
ltoes -13.4816
869
root 0.795104 18.0844 2.16015 6.91821 2.16358 7.26698
lowerback 13.73 -0.657555 0.728661
upperback 0.236209 -0.377504 4.85625
thorax -7.44734 -0.112605 4.85617
lowerneck -16.4971 0.650071 7.35315
upperneck 13.9706 2.30971 -18.3612
head 7.3461 -0.147341 -7.14412
rclavicle 9.54166e-015 -2.22639e-014
rhumerus -22.4249 -30.4896 -14.5513
rradius 31.4965
rwrist -0.497356
rhand -21.5929 -3.12644
rfingers 7.12502
rthumb 4.80184 -33.052
lclavicle 9.54166e-015 -2.22639e-014
lhumerus -27.5792 30.9485 24.1297
lradius 39.148
lwrist 11.6224
lhand -20.4892 -2.21712
lfingers 7.12502
lthumb 5.86754 27.6816
rfemur -28.5861 -4.10293 7.5473
rtibia 34.0472
rfoot -5.22562 -16.2528
rtoes -2.08642
lfemur 2.98603 -1.50949 -20.537
ltibia 27.8439
lfoot 3.33082 14.7628
ltoes -12.9982
870
root 0.752848 18.0994 2.2372 6.91033 2.13151 7.32219
lowerback 13.7061 -0.631439 0.837885
upperback 0.198194 -0.315333 4.97446
thorax -7.4803 -0.083056 4.91015
lowerneck -16.4852 0.650226 7.34128
upperneck 13.9912 2.35364 -18.5738
head 7.36163 -0.14552 -7.21432
rclavicle -2.94201e-014 4.13472e-014
rhumerus -22.4375 -30.4505 -14.83
rradius 31.5049
rwrist -0.462805
rhand -21.5739 -3.07482
rfingers 7.12502
rthumb 4.82026 -33
lclavicle -2.94201e-014 4.13472e-014
lhumerus -27.2714 30.7593 23.9401
lradius 39.2433
lwrist 11.6559
lhand -20.4878 -2.29133
lfingers 7.12502
lthumb 5.86884 27.6074
rfemur -28.3036 -4.12236 7.66297
rtibia 34.0411
rfoot -5.44862 -16.2569
rtoes -2.16688
lfemur 2.97942 -1.52019 -20.4794
ltibia 28.0927
lfoot 3.9928 14.626
ltoes -12.5123
871
root 0.711073 18.1143 2.31316 6.90616 2.09416 7.38468
lowerback 13.686 -0.60943 0.927141
upperback 0.153979 -0.262576 5.07634
thorax -7.52126 -0.0575583 4.96012
lowerneck -16.4411 0.661293 7.36176
upperneck 13.9825 2.40218 -18.789
head 7.3629 -0.137386 -7.28894
rclavicle 1.59028e-015 0
rhumerus -22.4559 -30.3256 -15.0803
rradius 31.5526
rwrist -0.512247
rhand -21.5745 -3.09702
rfingers 7.12502
rthumb 4.81959 -33.0222
lclavicle 1.59028e-015 0
lhumerus -27.0003 30.5143 23.7421
lradius 39.3574
lwrist 11.6709
lhand -20.4844 -2.34162
lfingers 7.12502
lthumb 5.87214 27.557
rfemur -28.0253 -4.13328 7.76546
rtibia 34.027
rfoot -5.66688 -16.261
rtoes -2.28846
lfemur 2.97856 -1.51935 -20.432
ltibia 28.3211
lfoot 4.65162 14.5015
ltoes -11.9783
872
root 0.669505 18.129 2.38811 6.90214 2.05641 7.45893
lowerback 13.6672 -0.58951 1.00251
upperback 0.108075 -0.216314 5.15643
thorax -7.56422 -0.0351537 4.99582
lowerneck -16.3906 0.674964 7.39326
upperneck 13.9476 2.44533 -18.9888
head 7.35377 -0.128611 -7.35942
rclavicle 1.43125e-014 8.26944e-014
rhumerus -22.5041 -30.1404 -15.2783
rradius 31.6282
rwrist -0.58717
rhand -21.5632 -3.11523
rfingers 7.12502
rthumb 4.83053 -33.0402
lclavicle 1.43125e-014 8.26944e-014
lhumerus -26.731 30.214 23.5555
lradius 39.4708
lwrist 11.7091
lhand -20.5033 -2.38303
lfingers 7.12502
lthumb 5.85392 27.5161
rfemur -27.7465 -4.12587 7.84972
rtibia 34.0059
rfoot -5.87812 -16.2824
rtoes -2.41913
lfemur 2.98675 -1.50764 -20.3969
ltibia 28.5357
lfoot 5.30952 14.38
ltoes -11.3847
873
root 0.628335 18.1435 2.46217 6.8959 2.02558 7.54052
lowerback 13.6517 -0.576978 1.06999
upperback 0.0573587 -0.1823 5.2159
thorax -7.61329 -0.018761 5.01636
lowerneck -16.3448 0.699432 7.45191
upperneck 13.9276 2.49722 -19.1789
head 7.35156 -0.113906 -7.43129
rclavicle 1.74931e-014 -1.01778e-013
rhumerus -22.5616 -29.9288 -15.4337
rradius 31.717
rwrist -0.688363
rhand -21.5484 -3.16195
rfingers 7.12502
rthumb 4.84486 -33.0866
lclavicle 1.74931e-014 -1.01778e-013
lhumerus -26.4777 29.9336 23.3596
lradius 39.5584
lwrist 11.6914
lhand -20.5016 -2.49428
lfingers 7.12502
lthumb 5.85551 27.4048
rfemur -27.4628 -4.11654 7.92367
rtibia 33.9781
rfoot -6.07937 -16.3136
rtoes -2.55288
lfemur 3.00252 -1.48052 -20.366
ltibia 28.7411
lfoot 5.95993 14.2482
ltoes -10.706
